<svg xmlns:xlink="http://www.w3.org/1999/xlink" xmlns="http://www.w3.org/2000/svg" width="20" height="21" viewBox="0 0 20 21" fill="none">
<path d="M11 18.1922C13.0173 17.9319 14.8611 16.9023 16.1568 15.3128C17.4525 13.7232 18.1027 11.6929 17.9754 9.63461C17.848 7.57628 16.9527 5.64436 15.4713 4.23151C13.9898 2.81866 12.0336 2.0309 10 2.02834C7.96396 2.02681 6.00395 2.81264 4.51934 4.22573C3.03473 5.63882 2.13724 7.57282 2.00974 9.63366C1.88225 11.6945 2.53434 13.7271 3.83314 15.3173C5.13195 16.9075 6.97974 17.9356 9 18.1922V12.1701H7V10.1417H9V8.46428C9 7.10833 9.14 6.61646 9.4 6.12053C9.65611 5.62986 10.052 5.22876 10.536 4.96944C10.918 4.76154 11.393 4.6368 12.223 4.58304C12.552 4.56175 12.978 4.58812 13.501 4.66418V6.59111H13C12.083 6.59111 11.704 6.63472 11.478 6.75743C11.3431 6.82777 11.2334 6.93912 11.164 7.07588C11.044 7.30508 11 7.53226 11 8.46327V10.1417H13.5L13 12.1701H11V18.1922ZM10 20.2834C4.477 20.2834 0 15.743 0 10.1417C0 4.54045 4.477 0 10 0C15.523 0 20 4.54045 20 10.1417C20 15.743 15.523 20.2834 10 20.2834Z" fill="white"/>
</svg>