<svg xmlns:xlink="http://www.w3.org/1999/xlink" xmlns="http://www.w3.org/2000/svg" width="20" height="21" viewBox="0 0 20 21" fill="none">
<path d="M10 7.09921C9.20435 7.09921 8.44129 7.41976 7.87868 7.99034C7.31607 8.56092 7 9.3348 7 10.1417C7 10.9486 7.31607 11.7225 7.87868 12.2931C8.44129 12.8637 9.20435 13.1842 10 13.1842C10.7956 13.1842 11.5587 12.8637 12.1213 12.2931C12.6839 11.7225 13 10.9486 13 10.1417C13 9.3348 12.6839 8.56092 12.1213 7.99034C11.5587 7.41976 10.7956 7.09921 10 7.09921ZM10 5.07086C11.3261 5.07086 12.5979 5.60511 13.5355 6.55608C14.4732 7.50705 15 8.79685 15 10.1417C15 11.4866 14.4732 12.7764 13.5355 13.7274C12.5979 14.6783 11.3261 15.2126 10 15.2126C8.67392 15.2126 7.40215 14.6783 6.46447 13.7274C5.52678 12.7764 5 11.4866 5 10.1417C5 8.79685 5.52678 7.50705 6.46447 6.55608C7.40215 5.60511 8.67392 5.07086 10 5.07086ZM16.5 4.81732C16.5 5.15354 16.3683 5.47599 16.1339 5.71373C15.8995 5.95147 15.5815 6.08503 15.25 6.08503C14.9185 6.08503 14.6005 5.95147 14.3661 5.71373C14.1317 5.47599 14 5.15354 14 4.81732C14 4.4811 14.1317 4.15865 14.3661 3.92091C14.6005 3.68317 14.9185 3.5496 15.25 3.5496C15.5815 3.5496 15.8995 3.68317 16.1339 3.92091C16.3683 4.15865 16.5 4.4811 16.5 4.81732ZM10 2.02834C7.526 2.02834 7.122 2.03544 5.971 2.08717C5.187 2.12469 4.661 2.23118 4.173 2.42387C3.739 2.59425 3.426 2.7981 3.093 3.13683C2.78001 3.44352 2.53935 3.81794 2.389 4.23214C2.199 4.72909 2.094 5.26153 2.058 6.05562C2.006 7.17527 2 7.56674 2 10.1417C2 12.6508 2.007 13.0605 2.058 14.2278C2.095 15.0219 2.2 15.5564 2.389 16.0503C2.559 16.4915 2.759 16.8089 3.091 17.1456C3.428 17.4864 3.741 17.6902 4.171 17.8586C4.665 18.0523 5.191 18.1598 5.971 18.1963C7.075 18.249 7.461 18.2551 10 18.2551C12.474 18.2551 12.878 18.248 14.029 18.1963C14.811 18.1588 15.338 18.0523 15.826 17.8606C16.259 17.6892 16.574 17.4853 16.906 17.1486C17.243 16.8069 17.444 16.4894 17.61 16.0533C17.8 15.5533 17.906 15.0189 17.942 14.2278C17.994 13.1082 18 12.7167 18 10.1417C18 7.63266 17.993 7.22294 17.942 6.05562C17.905 5.26254 17.8 4.72706 17.61 4.23214C17.4593 3.81836 17.2191 3.44409 16.907 3.13683C16.6047 2.81924 16.2355 2.57515 15.827 2.42286C15.337 2.23016 14.811 2.12368 14.029 2.08717C12.925 2.03443 12.539 2.02834 10 2.02834ZM10 0C12.717 0 13.056 0.0101417 14.122 0.0608503C15.187 0.111559 15.912 0.280926 16.55 0.532441C17.21 0.79004 17.766 1.13892 18.322 1.70178C18.8305 2.20876 19.224 2.82202 19.475 3.49889C19.722 4.14492 19.89 4.88121 19.94 5.9613C19.987 7.04241 20 7.38622 20 10.1417C20 12.8972 19.99 13.241 19.94 14.3221C19.89 15.4022 19.722 16.1375 19.475 16.7846C19.2247 17.4618 18.8311 18.0752 18.322 18.5817C17.822 19.0972 17.2173 19.4962 16.55 19.751C15.913 20.0015 15.187 20.1719 14.122 20.2226C13.056 20.2703 12.717 20.2834 10 20.2834C7.283 20.2834 6.944 20.2733 5.878 20.2226C4.813 20.1719 4.088 20.0015 3.45 19.751C2.78233 19.4969 2.17753 19.0978 1.678 18.5817C1.16941 18.0748 0.775931 17.4615 0.525 16.7846C0.277 16.1385 0.11 15.4022 0.0599999 14.3221C0.0129999 13.241 0 12.8972 0 10.1417C0 7.38622 0.00999994 7.04241 0.0599999 5.9613C0.11 4.8802 0.277 4.14594 0.525 3.49889C0.775236 2.82161 1.1688 2.20818 1.678 1.70178C2.17767 1.1858 2.78243 0.786723 3.45 0.532441C4.088 0.280926 4.812 0.111559 5.878 0.0608503C6.944 0.0131842 7.283 0 10 0Z" fill="white"/>
</svg>