<svg xmlns:xlink="http://www.w3.org/1999/xlink" xmlns="http://www.w3.org/2000/svg" width="20" height="17" viewBox="0 0 20 17" fill="none">
<path d="M17.606 3.06578C17.53 2.76355 17.314 2.53536 17.067 2.46538C16.63 2.34064 14.5 2.05667 10 2.05667C5.5 2.05667 3.372 2.34064 2.931 2.46538C2.687 2.53435 2.471 2.76254 2.394 3.06578C2.285 3.49579 2 5.29798 2 8.14172C2 10.9855 2.285 12.7866 2.394 13.2187C2.47 13.5199 2.686 13.7481 2.932 13.817C3.372 13.9428 5.5 14.2268 10 14.2268C14.5 14.2268 16.629 13.9428 17.069 13.8181C17.313 13.7491 17.529 13.5209 17.606 13.2177C17.715 12.7877 18 10.9814 18 8.14172C18 5.30203 17.715 3.4968 17.606 3.06578ZM19.543 2.56173C20 4.36899 20 8.14172 20 8.14172C20 8.14172 20 11.9145 19.543 13.7217C19.289 14.7207 18.546 15.5067 17.605 15.7724C15.896 16.2551 10 16.2551 10 16.2551C10 16.2551 4.107 16.2551 2.395 15.7724C1.45 15.5026 0.708 14.7176 0.457 13.7217C2.98023e-08 11.9145 0 8.14172 0 8.14172C0 8.14172 2.98023e-08 4.36899 0.457 2.56173C0.711 1.56277 1.454 0.776782 2.395 0.511068C4.107 0.0283201 10 0.0283203 10 0.0283203C10 0.0283203 15.896 0.0283201 17.605 0.511068C18.55 0.780838 19.292 1.56581 19.543 2.56173ZM8 11.6913V4.59211L14 8.14172L8 11.6913Z" fill="white"/>
</svg>